<svg xmlns="http://www.w3.org/2000/svg" viewBox="0 0 512 512">
    <!-- Background -->
    <rect width="512" height="512" fill="#000000" rx="100"/>
    
    <!-- Theater Masks Icon (fa-masks-theater) in White -->
    <path fill="#ffffff" transform="scale(0.65) translate(130, 130)" d="M211 41.5c5.7 6.7 3.3 17.2-4.5 20.9-14.4 6.8-24.8 20.1-27.9 36.2l-9.3 48.4H256.3l17.4-52.4c2.2-6.4 8.3-10.6 15-10.6 11 0 19 10.4 16.4 21.1L292.1 157.1H368c26.5 0 48 21.5 48 48V226l-20.8 31.3c-9.8 14.7-15.4 31.6-16.3 49.1l-2.8 57.6c-.7 14.4-12.6 25.9-27.1 25.9H328h-94c-12.3 0-22.7-8.9-24.4-21.1l-4-28.3c-2.7-19.1-10.6-36.9-23.1-52l-18.9-22.7c-9.4-11.3-19.6-19.8-30.8-25.6l-4.3-25.7c-3.5-21.2.9-42.9 12.2-61.3l13.7-22.4c7-11.3 15.4-21.7 24.9-31 10.3-10.2 21.3-22.4 31.7-58.3zM336 248a24 24 0 1 0-48 0 24 24 0 1 0 48 0zm-96 0a24 24 0 1 0-48 0 24 24 0 1 0 48 0zm64 68.8c0-15.4-16.6-25.2-30.5-18.8L262.1 303.3c-1.3.5-2.7.7-4.1.7h-4c-1.4 0-2.8-.2-4.1-.7l-11.4-5.3c-13.9-6.4-30.5 3.4-30.5 18.8 0 5.4 3.3 10.3 8.4 12.3 13 5.2 25.2 10.9 39.6 10.9s26.6-5.7 39.6-10.9c5.1-2 8.4-6.9 8.4-12.3zM37.5 168.6c11.3-18.4 26.6-34.1 44.5-45.7l13-8.4c-4.4 20-2.6 41 5.3 59.9l12.4 29.8c7.3 17.5 17.6 33.4 30.1 46.9l20.4 22.1c11.6 12.6 20.8 27.5 26.9 43.8l6.8 18.2c6.1 16.3 18.9 29.5 34.6 35.8l6 2.4H163c-23.7 0-43.8-17.5-47.5-41.1l-6-37.4c-1.5-9.6-4.5-18.8-8.9-27.4L83 234.3c-9.6-18.7-14.7-39.2-14.7-60.3v-5.4zM96 248a24 24 0 1 0-48 0 24 24 0 1 0 48 0z"/>
</svg>
